<svg width="47" height="51" viewBox="0 0 47 51" fill="none" xmlns="http://www.w3.org/2000/svg">
<rect width="47" height="51" fill="#1E1E1E"/>
<g id="Home" clip-path="url(#clip0_0_1)" filter="url(#filter0_d_0_1)">
<rect width="1920" height="6569" transform="translate(-795 -569)" fill="white"/>
<g id="Group 16">
<g id="Frame 5">
<g id="Group 3">
<g id="Component 5">
<rect x="-39" y="-2" width="125" height="75" rx="37.5" fill="#FFD0D0"/>
<g id="Group 1">
<path id="Vector" d="M15.7379 27.2869L13.4833 21.6978L13.5453 12.6502C13.5453 12.6502 19.6185 11.74 22.8081 11.3015C25.9977 10.863 32.3397 8.19049 38.1233 10.7513C44.6928 13.6596 48.1762 20.3905 46.4221 30.6503C44.668 40.91 36.9773 49.213 30.052 50.1066C26.6224 50.5493 26.0101 49.2171 23.3831 49.4074C21.2567 49.5605 21.3725 50.6651 17.7444 50.4789C14.1162 50.2928 11.0383 48.9441 9.22631 46.6936C7.4143 44.443 15.7379 27.2869 15.7379 27.2869Z" fill="#DC0D28"/>
<path id="Vector_2" d="M5.72641 14.4001C0.526197 18.744 -1.92704 27.8992 2.22237 37.6708C5.91258 46.3667 11.8078 48.8531 11.8078 48.8531C11.8078 48.8531 22.1172 48.1788 29.3115 44.2982C36.5057 40.4177 43.4517 33.662 43.4517 24.7799C43.4517 15.8977 38.8224 12.8943 38.3219 12.7702C37.8213 12.646 35.7569 13.9575 33.4402 14.0195C31.1235 14.0816 29.3115 13.5189 29.3115 13.5189L21.9931 15.9598L15.1505 14.3629C15.1505 14.3629 14.9312 13.4073 15.6718 13.0184C17.2107 12.2158 20.4252 13.581 21.7407 13.5189C23.0563 13.4569 24.1816 11.7028 24.1816 11.7028C24.1816 11.7028 21.1161 11.3884 20.0529 11.1402C18.9896 10.9002 11.7954 9.3323 5.72641 14.4001Z" fill="#FF5117"/>
<path id="Vector_3" d="M22.6054 14.4539C20.7106 14.5408 15.6304 12.7577 15.1712 14.1519C14.683 15.633 18.4642 17.598 23.0687 17.2754C27.8718 16.9403 30.8628 14.2843 30.1016 12.8529C29.3445 11.4215 26.2294 14.2843 22.6054 14.4539Z" fill="#8D1D0A"/>
<path id="Vector_4" d="M18.0588 6.11371C18.0588 6.11371 17.2604 6.07234 16.8384 5.90273C16.4164 5.73311 15.8207 5.74552 15.8703 5.01741C15.9531 3.79699 17.5169 2.54348 17.8933 2.32008C18.609 1.89811 19.8625 2.01394 20.3383 2.32008C20.9299 2.70069 20.632 4.09072 20.632 4.09072C20.632 4.09072 22.7378 7.25139 23.0315 9.18751C23.3004 10.954 24.4008 16.1087 22.7378 16.4314C21.2195 16.7251 21.8524 12.766 21.0126 10.8299C20.5079 9.67154 19.7922 8.43044 19.1179 7.58649C18.736 7.11695 18.3824 6.62516 18.0588 6.11371Z" fill="#513630"/>
<path id="Vector_5" d="M40.5517 1.18655C40.7213 0.892822 40.3821 0.594957 38.9921 0.553587C37.602 0.512217 30.0189 -0.203484 25.7247 5.14566C22.6385 8.98894 23.1142 12.2654 23.1142 12.2654L25.9357 12.3937L40.5517 1.18655Z" fill="#2F7C31"/>
<path id="Vector_6" d="M31.2393 6.44881C33.7918 4.68645 40.5889 0.847311 40.5889 0.847311C40.5889 0.847311 40.5889 1.81537 40.167 2.65932C39.745 3.50327 38.3136 7.67337 32.5011 10.7058C27.0444 13.552 23.4038 12.8529 23.106 12.3482C22.8164 11.8435 27.0278 9.35713 31.2393 6.44881Z" fill="#709F19"/>
<path id="Vector_7" d="M12.4987 15.633C11.3693 14.0071 8.63471 14.4663 6.18147 17.7387C3.0208 21.9502 3.19041 27.5517 5.33752 27.8909C7.46808 28.226 5.58988 26.0789 8.87466 21.8261C11.39 18.5702 13.9301 17.6973 12.4987 15.633Z" fill="#FFD2B1"/>
</g>
</g>
</g>
</g>
<g id="Group 5">
</g>
</g>
</g>
<defs>
<filter id="filter0_d_0_1" x="-799" y="-569" width="1928" height="6577" filterUnits="userSpaceOnUse" color-interpolation-filters="sRGB">
<feFlood flood-opacity="0" result="BackgroundImageFix"/>
<feColorMatrix in="SourceAlpha" type="matrix" values="0 0 0 0 0 0 0 0 0 0 0 0 0 0 0 0 0 0 127 0" result="hardAlpha"/>
<feOffset dy="4"/>
<feGaussianBlur stdDeviation="2"/>
<feComposite in2="hardAlpha" operator="out"/>
<feColorMatrix type="matrix" values="0 0 0 0 0 0 0 0 0 0 0 0 0 0 0 0 0 0 0.25 0"/>
<feBlend mode="normal" in2="BackgroundImageFix" result="effect1_dropShadow_0_1"/>
<feBlend mode="normal" in="SourceGraphic" in2="effect1_dropShadow_0_1" result="shape"/>
</filter>
<clipPath id="clip0_0_1">
<rect width="1920" height="6569" fill="white" transform="translate(-795 -569)"/>
</clipPath>
</defs>
</svg>
