<svg width="49" height="45" viewBox="0 0 49 45" fill="none" xmlns="http://www.w3.org/2000/svg">
<rect width="49" height="45" fill="#1E1E1E"/>
<g id="Home" clip-path="url(#clip0_0_1)" filter="url(#filter0_d_0_1)">
<rect width="1920" height="6569" transform="translate(-1078 -492)" fill="white"/>
<g id="Group 16">
<g id="Frame 5">
<g id="Group 4">
<g id="Component 4">
<rect x="-13" y="-15" width="125" height="75" rx="37.5" fill="#FFEDD0"/>
<g id="Group 2">
<path id="Vector" d="M40.6349 8.45815C40.6349 8.45815 40.6481 8.64152 40.6521 8.97593L40.6537 9.10855C40.654 9.15547 40.6562 9.2021 40.6513 9.26155C40.6411 9.38557 40.6308 9.50957 40.6205 9.63358C40.6081 9.76689 40.5966 9.91695 40.5793 10.0669C40.5616 10.2141 40.5447 10.3724 40.5214 10.5379C40.4122 11.3379 40.2459 12.1291 40.0239 12.9054C39.7684 13.8073 39.4089 14.8108 38.9138 15.8677C38.4204 16.9253 37.784 18.03 37.0032 19.135C36.9085 19.2759 36.8044 19.4098 36.7021 19.5474L36.5469 19.7539L36.4688 19.8578L36.4492 19.8838C36.5108 19.8271 36.3541 19.9758 36.3674 19.9643L36.3593 19.9752L36.3266 20.0186C36.1537 20.2513 35.9713 20.479 35.7909 20.7135L35.7739 20.7354L35.7499 20.7624L35.7015 20.8167L35.6043 20.9254L35.4061 21.1412L35.0022 21.575L34.9002 21.6835L34.8043 21.7817C34.7402 21.8477 34.6754 21.9129 34.6098 21.9772L34.2142 22.3681C33.1439 23.4049 31.9283 24.3705 30.608 25.228C29.2693 26.0948 27.8505 26.8313 26.3711 27.4272C24.8908 28.0253 23.3572 28.4822 21.7909 28.7919C20.2425 29.0961 18.6923 29.2485 17.1957 29.2561C15.6989 29.2643 14.2572 29.1312 12.9175 28.8923C12.247 28.7785 11.6031 28.6231 10.9874 28.4634C10.3734 28.2885 9.78653 28.1125 9.23545 27.9031L8.82659 27.7538C8.6922 27.7042 8.56163 27.6449 8.43194 27.5918C8.17276 27.484 7.92161 27.3756 7.67888 27.2669C7.43704 27.1547 7.2045 27.038 6.9799 26.9245L6.64882 26.7568C6.54038 26.7019 6.43646 26.6388 6.33312 26.5816C5.92142 26.3467 5.54039 26.1289 5.20196 25.8979C4.86216 25.671 4.55283 25.4663 4.28571 25.2568L3.90762 24.9633L3.58085 24.6973C3.38152 24.5267 3.21715 24.374 3.08452 24.2509C2.81956 24.0047 2.68566 23.864 2.68566 23.864C1.43941 22.5545 1.49074 20.4827 2.80027 19.2364C3.32522 18.7352 4.00248 18.4236 4.72464 18.351L5.11723 18.3114C5.11723 18.3114 5.28179 18.2947 5.57643 18.2808C5.72366 18.274 5.90438 18.2647 6.11067 18.2625L6.44713 18.2428L6.82112 18.2285C7.08059 18.2261 7.37171 18.2007 7.6781 18.1908C7.98352 18.1845 8.31626 18.1534 8.66056 18.1396C9.00545 18.1243 9.37238 18.0861 9.74764 18.0686C10.128 18.0275 10.517 18.0101 10.9219 17.9627L11.2266 17.9324L11.38 17.9199L11.5353 17.9007L11.8483 17.8624L12.1638 17.8303C12.3763 17.7993 12.5906 17.7691 12.8063 17.7447L12.9685 17.7247L13.1319 17.6977L13.4602 17.6498C14.3394 17.5166 15.2451 17.3552 16.1634 17.1581C18.0002 16.7665 19.8874 16.2334 21.7283 15.5506C22.6476 15.2086 23.5544 14.834 24.4471 14.4276C25.3376 14.0245 26.2046 13.5883 27.0493 13.1398L27.3618 12.9671C27.4137 12.9382 27.4661 12.9099 27.5192 12.8827L27.5986 12.8414L27.6664 12.8048L27.937 12.6602L28.0735 12.589L28.143 12.5548L28.1778 12.5378L28.1953 12.5292L28.2185 12.514C28.4666 12.3528 28.708 12.1891 28.9539 12.0352L28.9997 12.0062L29.0112 11.9989C29.031 11.9814 28.8807 12.124 28.9487 12.061L28.9671 12.0497L29.0407 12.0044L29.1879 11.9143L29.4805 11.7345C30.2542 11.2521 30.9967 10.7673 31.6842 10.2869C32.3282 9.83801 32.9636 9.37683 33.5899 8.90364C34.1685 8.46961 34.6788 8.06624 35.1107 7.72654C35.2167 7.64064 35.3222 7.5609 35.4196 7.48411C35.5156 7.40927 35.6041 7.34531 35.6882 7.28135L35.9224 7.10494C35.9589 7.08094 35.9968 7.04626 36.0322 7.01629L36.1329 6.92999C36.3869 6.71244 36.5334 6.60136 36.5334 6.60136C37.6607 5.74692 39.2673 5.9682 40.1217 7.09553C40.4221 7.4899 40.6005 7.96359 40.6349 8.45815Z" fill="#FFAE2C"/>
<path id="Vector_2" d="M3.83053 21.2493C3.42951 22.1649 3.07443 22.2861 2.13252 21.8736C1.19051 21.4611 1.03878 21.118 1.4397 20.2023C1.84062 19.2867 4.23154 20.3336 3.83053 21.2493Z" fill="#B28E7F"/>
<path id="Vector_3" d="M42.7057 9.63456C42.7057 9.63456 42.7496 9.83732 42.8073 10.2104L42.8301 10.3584C42.8379 10.4108 42.8478 10.4626 42.8518 10.5297L42.8765 10.9504C42.8839 11.1013 42.8949 11.2708 42.8994 11.4411C42.903 11.6084 42.9092 11.7879 42.9095 11.9766C42.9147 12.8879 42.8547 13.7984 42.7301 14.7011C42.5879 15.7496 42.3457 16.928 41.9605 18.1877C41.5773 19.4478 41.0418 20.7835 40.345 22.1423C40.2616 22.3148 40.1667 22.481 40.0741 22.6511L39.9336 22.9065L39.8628 23.0349L39.845 23.0672C39.9048 22.994 39.7533 23.1851 39.7663 23.1701L39.759 23.1835L39.7295 23.2372C39.5733 23.5248 39.4056 23.8082 39.2413 24.0989L39.2258 24.126L39.2033 24.16L39.1578 24.2283L39.0666 24.3652L38.8794 24.6378L38.4971 25.1867L38.4003 25.3242L38.3087 25.4492C38.2479 25.5329 38.1856 25.6158 38.1226 25.6985L37.7426 26.198C36.7115 27.5267 35.5067 28.799 34.1677 29.967C32.8096 31.1485 31.3413 32.1969 29.783 33.098C28.2239 34.0016 26.5829 34.756 24.882 35.3511C23.2001 35.9371 21.4921 36.3538 19.8211 36.6003C18.1498 36.8475 16.5176 36.9278 14.9826 36.8739C14.2153 36.8532 13.4711 36.7821 12.7577 36.7014C12.0438 36.6036 11.36 36.5002 10.711 36.3538L10.2304 36.2521C10.0724 36.2181 9.9171 36.1725 9.7637 36.1337C9.4649 36.0567 9.16716 35.9756 8.87057 35.8904C8.58249 35.8035 8.30411 35.7101 8.03504 35.619L7.63843 35.4842C7.50854 35.44 7.38238 35.3861 7.25779 35.3386C7.01759 35.2449 6.77854 35.1483 6.54068 35.0488C6.31059 34.9586 6.09343 34.8522 5.88518 34.7545C5.46937 34.555 5.09118 34.3754 4.75941 34.1837C4.46415 34.0184 4.17172 33.848 3.88225 33.6728C3.67163 33.5355 3.46326 33.3948 3.25721 33.2507C2.92202 33.0176 2.75002 32.8817 2.75002 32.8817C1.14928 31.6166 0.877264 29.2933 2.14242 27.6926C2.64933 27.0491 3.35654 26.5933 4.15191 26.3974L4.58427 26.2906C4.58427 26.2906 4.76549 26.2457 5.09255 26.1834C5.25593 26.1525 5.45634 26.1136 5.68712 26.0758C5.91995 26.0287 6.18433 25.9781 6.47505 25.9271C6.7646 25.8831 7.08588 25.8085 7.42666 25.7487C7.76694 25.6932 8.13377 25.6055 8.51638 25.5353C8.89937 25.4634 9.30333 25.3624 9.71982 25.2831C9.93161 25.2306 10.1442 25.1813 10.3575 25.1352C10.5733 25.0899 10.7928 25.0322 11.0151 24.9781L11.3508 24.8958L11.5202 24.8574L11.6906 24.8113L12.0342 24.7187L12.3817 24.6328L12.7321 24.5308C12.9094 24.4827 13.0867 24.4347 13.264 24.3868L13.4423 24.3307C13.5614 24.2936 13.6814 24.2602 13.8016 24.2249C14.7627 23.9363 15.7492 23.6119 16.7439 23.2456C18.7342 22.5161 20.7581 21.6204 22.7065 20.5647C23.6794 20.0364 24.6332 19.4737 25.566 18.8775C26.4969 18.2856 27.3965 17.6604 28.269 17.0249L28.5908 16.7821C28.6443 16.7414 28.6984 16.7016 28.7532 16.6627L28.8353 16.6041L28.9053 16.5524L29.1847 16.3477L29.3259 16.2464L29.3982 16.1972L29.4344 16.1726L29.4526 16.1602L29.4761 16.1395C29.7278 15.92 29.9715 15.6986 30.2217 15.4875L30.2683 15.4477L30.2799 15.4378C30.2994 15.4151 30.1541 15.5983 30.2199 15.5172L30.2387 15.5016L30.3138 15.4394L30.4639 15.3153L30.7623 15.0679C31.5501 14.4059 32.3027 13.7462 32.9946 13.1001C33.6428 12.4961 34.2794 11.8798 34.9042 11.2516C35.4817 10.6745 35.9877 10.1428 36.4163 9.69451C36.5211 9.58167 36.6263 9.47578 36.7229 9.3745C36.8184 9.27557 36.9071 9.19015 36.9908 9.10523L37.2245 8.87083C37.2614 8.83821 37.2983 8.79344 37.333 8.75426L37.4318 8.64181C37.6811 8.35834 37.8272 8.21092 37.8272 8.21092C38.951 7.07693 40.7813 7.0688 41.9153 8.1926C42.3137 8.58595 42.5884 9.08715 42.7057 9.63456Z" fill="#FFB93E"/>
<path id="Vector_4" d="M3.61376 29.7784C3.31129 30.8653 0.47331 30.0755 0.775787 28.9886C1.07826 27.9017 1.45577 27.7098 2.574 28.021C3.69222 28.3322 3.91624 28.6914 3.61376 29.7784Z" fill="#A07562"/>
<path id="Vector_5" d="M41.084 0.649187C40.9707 0.618089 40.8522 0.610489 40.7358 0.626853C40.6149 0.523266 40.4795 0.438047 40.3338 0.37394C39.7484 0.117599 39.1121 0.683568 38.7883 1.03835C37.8029 2.11769 40.0204 3.53349 38.4447 6.14059C38.2226 6.50792 38.4119 7.45404 38.7509 7.60244C39.1332 7.76984 39.5837 7.64789 39.9185 7.32327C39.9089 7.34659 39.8998 7.3696 39.8899 7.39311C39.7001 7.83889 40.0622 8.86592 40.4644 8.97788C41.0619 9.14411 41.7124 8.73222 41.9765 8.02735C42.7192 6.04509 43.5126 1.32506 41.084 0.649187Z" fill="#8E6049"/>
<path id="Vector_6" d="M46.2241 8.19368C46.2241 8.19368 46.325 8.36793 46.4916 8.69656L46.5576 8.82694C46.5807 8.87337 46.6053 8.91735 46.6303 8.9819L46.7852 9.38037C46.8395 9.52358 46.9029 9.68412 46.9606 9.84594C47.0162 10.0046 47.0779 10.1739 47.1376 10.3539C47.4285 11.2227 47.6602 12.1101 47.8312 13.0102C48.0322 14.0554 48.1838 15.256 48.2311 16.5802C48.2805 17.9041 48.2147 19.3493 48.0094 20.8698C47.9879 21.061 47.954 21.2504 47.9233 21.4425L47.876 21.7315L47.852 21.8768L47.8459 21.9133C47.8765 21.8187 47.8009 22.063 47.8078 22.043L47.8053 22.058L47.7952 22.118C47.7427 22.4391 47.679 22.7607 47.6206 23.0876L47.615 23.1183L47.6052 23.1583L47.5854 23.2385L47.5454 23.3994C47.5173 23.5069 47.4892 23.6143 47.4611 23.7218L47.2865 24.3721L47.2419 24.5352L47.1977 24.6843C47.1684 24.7841 47.138 24.8837 47.1065 24.9829L46.9177 25.5837C46.392 27.1862 45.6972 28.7984 44.8416 30.3586C43.9733 31.9364 42.9595 33.4295 41.8134 34.8187C40.6645 36.217 39.3812 37.5034 38.0178 38.6441C36.6546 39.7854 35.211 40.781 33.7425 41.6064C32.2743 42.4329 30.7856 43.0933 29.3405 43.5974C28.6204 43.8552 27.9039 44.0586 27.213 44.2431C26.5152 44.4116 25.8439 44.5651 25.1893 44.6669L24.7069 44.7484C24.5482 44.7749 24.3878 44.7897 24.2316 44.8102C23.9185 44.8492 23.6131 44.8836 23.3158 44.9132C23.0174 44.9387 22.7256 44.9549 22.4434 44.9702L22.0271 44.9922C21.8907 44.9996 21.7543 44.9965 21.6216 44.9988C21.0895 45.0011 20.5966 45.0037 20.138 44.9701C19.6803 44.9412 19.2646 44.9176 18.8875 44.8656L18.3553 44.7957L17.8885 44.7242C17.5989 44.6723 17.3537 44.6189 17.1558 44.5758C16.7601 44.4896 16.5511 44.4316 16.5511 44.4316C14.6057 43.8919 13.4661 41.8774 14.0057 39.932C14.2399 39.0833 14.7735 38.3482 15.5078 37.8626L15.8687 37.6242C15.8687 37.6242 16.0219 37.5229 16.3053 37.3554C16.4469 37.2717 16.6204 37.1683 16.8231 37.0575L17.145 36.8612L17.5071 36.6495C17.7626 36.5098 18.0368 36.3301 18.3348 36.1569C18.634 35.9879 18.9465 35.779 19.2803 35.5802C19.6138 35.3797 19.9565 35.1441 20.3191 34.9232C20.6737 34.6766 21.0498 34.4477 21.425 34.1793L21.7105 33.9828L21.8555 33.8862L21.9988 33.782L22.2878 33.5723L22.5826 33.3667L22.8744 33.145L23.1715 32.9271L23.3211 32.8174L23.4679 32.7003L23.7662 32.4705C24.562 31.8503 25.3666 31.1832 26.1602 30.4707C26.9537 29.7583 27.7396 29.0048 28.4981 28.2098C29.2569 27.4152 29.9875 26.5793 30.6848 25.7182C32.0755 23.9923 33.3224 22.1562 34.3927 20.3185L34.5886 19.9729C34.621 19.9154 34.654 19.8581 34.6885 19.8016L34.7395 19.7165L34.7815 19.6427L34.9502 19.3508L35.0362 19.2057L35.0811 19.1337L35.1036 19.0977L35.1149 19.0796L35.1282 19.0515C35.272 18.7521 35.4086 18.4541 35.5539 18.163L35.5808 18.1083L35.5876 18.0947C35.5977 18.0652 35.525 18.2999 35.5582 18.1956L35.5689 18.1742L35.6117 18.0889L35.6974 17.9188L35.8674 17.5803C36.3122 16.679 36.7228 15.7974 37.0822 14.9549C37.418 14.1701 37.7382 13.3788 38.0427 12.5813C38.3246 11.8506 38.5596 11.1899 38.759 10.634C38.8066 10.4951 38.857 10.3624 38.9019 10.2372C38.9465 10.115 38.9899 10.0098 39.0296 9.90559L39.1416 9.6179C39.161 9.57745 39.1758 9.52171 39.1907 9.47303L39.233 9.33316C39.3398 8.98053 39.4088 8.79138 39.4088 8.79138C40.1245 6.83214 42.2929 5.82411 44.2521 6.53975C45.1154 6.85486 45.7963 7.45639 46.2241 8.19368Z" fill="#FFCE6C"/>
<path id="Vector_7" d="M45.5539 17.7073C45.5539 17.7073 45.6148 17.9897 45.6763 18.4782C45.6843 18.5393 45.693 18.6037 45.6999 18.671L45.7113 18.7743L45.7166 18.8897C45.7248 19.0474 45.7258 19.2179 45.7304 19.4021C45.7326 19.585 45.7333 19.7844 45.7282 19.9882L45.6866 20.6189C45.6585 21.0613 45.5821 21.5311 45.4962 22.031C45.4771 22.1569 45.4473 22.2809 45.4183 22.4071L45.3271 22.7898C45.2632 23.0474 45.2012 23.3129 45.1129 23.5733C45.0288 23.8403 44.9414 24.1063 44.8507 24.3712C44.7504 24.636 44.641 24.9009 44.5315 25.1687C44.4738 25.3012 44.4231 25.438 44.3583 25.568L44.1675 25.9612L43.972 26.3542C43.9084 26.4864 43.8366 26.6138 43.763 26.7404C43.6184 26.9944 43.4714 27.2471 43.3221 27.4984C43.1652 27.7417 43.005 27.9828 42.8416 28.2218C42.6846 28.4627 42.5102 28.6882 42.3384 28.9107C42.1643 29.1316 41.9994 29.3548 41.8189 29.5595C41.4589 29.9699 41.1105 30.3639 40.7464 30.7058L40.481 30.9612C40.3931 31.0441 40.3089 31.1278 40.2187 31.2033C40.0389 31.3547 39.8703 31.5044 39.7005 31.6403C39.3703 31.9206 39.0433 32.1502 38.754 32.3512C38.6083 32.4507 38.4742 32.5452 38.3457 32.6273C38.2261 32.7006 38.1054 32.7722 37.9837 32.842C37.8138 32.9411 37.6416 33.036 37.4672 33.1267C37.3461 33.1894 37.2801 33.2206 37.2801 33.2206C37.1289 33.2922 36.959 33.3142 36.7946 33.2835C36.6302 33.2527 36.4797 33.1709 36.3645 33.0495C36.2494 32.9282 36.1755 32.7736 36.1535 32.6078C36.1314 32.442 36.1622 32.2735 36.2416 32.1263L36.2553 32.1013L36.3517 31.925C36.4159 31.8118 36.5104 31.647 36.6363 31.4459C36.698 31.344 36.7689 31.2345 36.8458 31.1157C36.9177 30.992 36.9991 30.8626 37.0845 30.7236C37.256 30.4464 37.4591 30.146 37.6629 29.8071C37.765 29.6377 37.8795 29.4696 37.9929 29.292C38.1036 29.1123 38.2151 28.9254 38.334 28.7376C38.5773 28.366 38.8094 27.9604 39.065 27.5553C39.1311 27.4555 39.1903 27.3501 39.2508 27.2447L39.4372 26.9293L39.629 26.613C39.6941 26.5076 39.7511 26.397 39.814 26.2893C39.9355 26.0714 40.0648 25.8563 40.1905 25.6382C40.3092 25.416 40.4304 25.1951 40.554 24.9756C40.6821 24.7579 40.7893 24.5306 40.9086 24.3099C41.0254 24.0881 41.1493 23.8705 41.2542 23.6467C41.3643 23.427 41.4762 23.2084 41.5901 22.9908C41.691 22.7732 41.795 22.5572 41.9021 22.3426C42.012 22.1317 42.1029 21.9185 42.1998 21.7114L42.3449 21.4042C42.3947 21.3053 42.4412 21.2047 42.4843 21.1027C42.5691 20.9072 42.6562 20.7128 42.7456 20.5194C42.84 20.3325 42.9102 20.1463 42.9864 19.9686L43.2133 19.4576C43.2856 19.2973 43.3415 19.1473 43.4055 19.004C43.4694 18.8615 43.5259 18.7262 43.5853 18.6012L43.6282 18.5089L43.6651 18.4117C43.6886 18.3483 43.7133 18.2882 43.7364 18.2311C43.9187 17.7736 44.0485 17.5155 44.0485 17.5155C44.1444 17.3249 44.312 17.1801 44.5146 17.1131C44.7172 17.0461 44.9381 17.0622 45.1287 17.1581C45.3538 17.2709 45.5035 17.4793 45.5539 17.7073Z" fill="#FFDF95"/>
<path id="Vector_8" d="M16.2296 41.2263C16.3421 42.3489 16.0599 42.6646 14.905 42.7804C13.7502 42.8962 13.411 42.6428 13.2984 41.5201C13.1859 40.3975 13.4681 40.0818 14.6229 39.966C15.7778 39.8502 16.117 40.1036 16.2296 41.2263Z" fill="#8E6049"/>
<path id="Vector_9" d="M43.0209 8.47196C43.6379 8.41015 44.0947 7.79031 44.085 7.03755C44.0578 4.92089 45.6858 1.6341 43.4414 0.486096C40.7844 -0.872993 38.6956 0.994078 38.5735 1.52224C38.2018 3.12934 41.0369 3.38862 41.9311 7.88434C42.0257 8.35941 42.6054 8.51359 43.0209 8.47196Z" fill="#966C5A"/>
<path id="Vector_10" d="M42.7055 3.67944C41.9915 4.83734 42.7063 8.5035 43.0209 8.47196C43.6379 8.41005 45.2814 -0.498032 42.7055 3.67944Z" fill="#1AC84B"/>
</g>
</g>
</g>
</g>
<g id="Group 5">
</g>
</g>
</g>
<defs>
<filter id="filter0_d_0_1" x="-1082" y="-492" width="1928" height="6577" filterUnits="userSpaceOnUse" color-interpolation-filters="sRGB">
<feFlood flood-opacity="0" result="BackgroundImageFix"/>
<feColorMatrix in="SourceAlpha" type="matrix" values="0 0 0 0 0 0 0 0 0 0 0 0 0 0 0 0 0 0 127 0" result="hardAlpha"/>
<feOffset dy="4"/>
<feGaussianBlur stdDeviation="2"/>
<feComposite in2="hardAlpha" operator="out"/>
<feColorMatrix type="matrix" values="0 0 0 0 0 0 0 0 0 0 0 0 0 0 0 0 0 0 0.25 0"/>
<feBlend mode="normal" in2="BackgroundImageFix" result="effect1_dropShadow_0_1"/>
<feBlend mode="normal" in="SourceGraphic" in2="effect1_dropShadow_0_1" result="shape"/>
</filter>
<clipPath id="clip0_0_1">
<rect width="1920" height="6569" fill="white" transform="translate(-1078 -492)"/>
</clipPath>
</defs>
</svg>
